# xmcd
#
# Track frame offsets:
#	150
#	15100
#	31600
#	41875
#	55825
#
# Disc length: 967 seconds
#
# Revision: 1
# Processed by: cddbd v1.5.2PL0 Copyright (c) Steve Scherf et al.
# Submitted via: audiograbber 1.83.01
#
DISCID=2d03c505
DTITLE=Various Artist - AXR PromoCD 18
DYEAR=1994
DGENRE=Pop
TTITLE0=Kari Tapio - Haavetango
TTITLE1=Eija Kantola - Kahden Rytmi
TTITLE2=Jope Ruonansuu - Ritke Vorresteri
TTITLE3=Tarja Ylitalo - Onnenruusu
TTITLE4=Kari Tapio - Sinä Sunnuntaina Silloin
EXTD=TR.
EXTT0=
EXTT1=
EXTT2=
EXTT3=
EXTT4=
PLAYORDER=
